<?xml version="1.0" encoding="UTF-8"?>
<svg id="Ebene_1" xmlns="http://www.w3.org/2000/svg" xmlns:sketch="http://www.bohemiancoding.com/sketch/ns" version="1.1" viewBox="0 0 800 800">
  <!-- Generator: Adobe Illustrator 29.8.2, SVG Export Plug-In . SVG Version: 2.1.1 Build 3)  -->
  <defs>
    <style>
      .st0 {
        fill: #cc1619;
      }
    </style>
  </defs>
  <path class="st0" d="M768.57,244.08c-20.14-47.68-48.98-90.51-85.72-127.3-36.73-36.77-79.51-65.64-127.14-85.8C506.39,10.1,454-.49,400-.49s-106.39,10.59-155.71,31.47c-47.63,20.16-90.41,49.03-127.14,85.81-36.74,36.78-65.58,79.61-85.72,127.29C10.58,293.46,0,345.92,0,400s10.58,106.54,31.43,155.92c20.14,47.68,48.98,90.51,85.72,127.3,36.73,36.77,79.51,65.64,127.14,85.8,49.32,20.88,101.71,31.47,155.71,31.47s106.39-10.59,155.71-31.47c47.63-20.16,90.41-49.03,127.14-85.8,36.74-36.79,65.58-79.62,85.72-127.3,20.85-49.38,31.43-101.84,31.43-155.92s-10.58-106.54-31.43-155.92ZM400,770.59c-204.67,0-370.59-165.92-370.59-370.59S195.33,29.41,400,29.41s370.59,165.92,370.59,370.59-165.92,370.59-370.59,370.59Z"/>
</svg>