<?xml version="1.0" encoding="UTF-8"?>
<svg id="Ebene_1" xmlns="http://www.w3.org/2000/svg" xmlns:sketch="http://www.bohemiancoding.com/sketch/ns" version="1.1" viewBox="0 0 800 800">
  <!-- Generator: Adobe Illustrator 29.8.2, SVG Export Plug-In . SVG Version: 2.1.1 Build 3)  -->
  <defs>
    <style>
      .st0 {
        fill: #cc1619;
      }

      .st0, .st1 {
        fill-rule: evenodd;
      }

      .st1 {
        fill: #fff;
      }
    </style>
  </defs>
  <path class="st0" d="M400,0C179.07,0,0,179,0,400s179.07,400,400,400,400-179,400-400S620.93,0,400,0Z"/>
  <path class="st1" d="M580.89,369.85h-150.74v-150.74c0-16.58-13.48-30.15-30.15-30.15s-30.15,13.57-30.15,30.15v150.74h-150.74c-16.67,0-30.15,13.57-30.15,30.15s13.48,30.15,30.15,30.15h150.74v150.74c0,16.58,13.48,30.15,30.15,30.15s30.15-13.57,30.15-30.15v-150.74h150.74c16.67,0,30.15-13.57,30.15-30.15s-13.48-30.15-30.15-30.15h0Z"/>
</svg>