<?xml version="1.0" encoding="UTF-8"?>
<svg id="Ebene_1" xmlns="http://www.w3.org/2000/svg" version="1.1" viewBox="0 0 1211 576.27">
  <!-- Generator: Adobe Illustrator 29.8.2, SVG Export Plug-In . SVG Version: 2.1.1 Build 3)  -->
  <defs>
    <style>
      .st0 {
        stroke: #000;
        stroke-miterlimit: 10;
        stroke-width: 7px;
      }
    </style>
  </defs>
  <path d="M816.91,56.51h.04c-29.7,15.55-41.79,51.79-27.35,82.05.07.14.14.26.2.39.03.06.05.13.09.19l13.65,25.93c.14.29.25.58.4.86.19.38.42.75.64,1.09l155.9,296.08s.04.05.05.09c.04.09.1.18.15.27.15.28.3.55.47.81.05.07.09.15.14.21,0,0,.02.02.02.02.04.07.08.13.13.18.17.26.36.5.54.75.08.12.16.22.25.33.29.35.58.68.89,1,.04.05.1.1.15.15.28.28.57.54.87.8.04.04.12.11.12.11l.12.09c.38.3.76.6,1.17.87l.02.02,82.59,55.36c1.26.85,2.65,1.51,4.11,1.95,1.43.61,2.96.93,4.52.93h105.26c6.3,0,11.4-5.1,11.4-11.4,0-6.3-5.11-11.4-11.4-11.4h-89.7s.84-92.12.84-92.12v-.15c0-.19-.02-.39-.02-.59,0-.31,0-.6-.05-.9v-.06c0-.15-.04-.28-.06-.42-.04-.34-.08-.7-.15-1.04-.06-.26-.13-.5-.18-.75s-.12-.47-.18-.72c-.12-.39-.25-.75-.4-1.13-.02-.04-.03-.07-.04-.11-.02-.06-.08-.17-.08-.17v-.04c-.12-.27-.25-.53-.38-.79-.09-.19-.16-.39-.27-.58,0-.03-.05-.09-.05-.09l-156.68-296.5v-.02h0l-14.35-27.16c-.04-.09-.1-.17-.15-.26s-.09-.19-.15-.28c-16.77-29-53.49-39.57-83.11-23.88v.03ZM831.35,83.92h0c14.86-7.86,33.27-2.64,41.77,11.86l6.83,12.95-55.74,29.08-6.72-12.75c-7.13-15.22-1.03-33.36,13.86-41.15h0ZM983.32,440.01h0s-144.68-274.76-144.68-274.76l55.77-29.11,144.95,274.3c-14.22,16.68-34.28,27.27-56.06,29.56h0ZM1041.84,449.98h0l-.3,32.42-26.94-18.06c4.83-1.75,9.52-3.84,14.08-6.24,4.57-2.41,8.95-5.12,13.15-8.12h0Z"/>
  <g>
    <path class="st0" d="M234.67,256v22.94h-64.89v169.62h-26.35v-169.62h-64.89v-22.94h156.12Z"/>
    <path class="st0" d="M412.55,283.53c12.76,17.04,19.14,38.84,19.14,65.41,0,28.75-7.3,52.65-21.89,71.7-17.13,22.37-41.55,33.56-73.27,33.56-29.62,0-52.91-9.79-69.87-29.36-15.12-18.88-22.68-42.73-22.68-71.57,0-26.04,6.47-48.33,19.4-66.85,16.6-23.77,41.16-35.65,73.67-35.65s59.16,10.92,75.5,32.77ZM389.54,406.26c10.27-16.48,15.4-35.44,15.4-56.87,0-22.65-5.92-40.89-17.76-54.7-11.84-13.82-28.03-20.73-48.57-20.73s-36.18,6.84-48.76,20.53c-12.58,13.69-18.88,33.87-18.88,60.54,0,21.34,5.4,39.34,16.19,53.98,10.79,14.65,28.29,21.98,52.5,21.98s39.61-8.24,49.88-24.73Z"/>
    <path class="st0" d="M463.93,256h76.97c26.13,0,46.39,9.39,60.79,28.18,12.85,16.95,19.27,38.67,19.27,65.15,0,20.45-3.8,38.93-11.38,55.45-13.37,29.19-36.35,43.78-68.95,43.78h-76.71v-192.56ZM535.78,426.27c8.63,0,15.72-.92,21.28-2.75,9.91-3.41,18.03-9.96,24.35-19.66,5.04-7.78,8.67-17.74,10.9-29.89,1.28-7.25,1.92-13.98,1.92-20.19,0-23.86-4.64-42.38-13.91-55.58-9.27-13.2-24.2-19.79-44.8-19.79h-45.24v147.86h45.5Z"/>
    <path class="st0" d="M815.23,283.53c12.76,17.04,19.14,38.84,19.14,65.41,0,28.75-7.3,52.65-21.89,71.7-17.13,22.37-41.55,33.56-73.27,33.56-29.62,0-52.91-9.79-69.87-29.36-15.12-18.88-22.68-42.73-22.68-71.57,0-26.04,6.47-48.33,19.4-66.85,16.6-23.77,41.16-35.65,73.67-35.65s59.16,10.92,75.5,32.77ZM792.22,406.26c10.27-16.48,15.4-35.44,15.4-56.87,0-22.65-5.92-40.89-17.76-54.7-11.84-13.82-28.03-20.73-48.57-20.73s-36.18,6.84-48.76,20.53c-12.58,13.69-18.88,33.87-18.88,60.54,0,21.34,5.4,39.34,16.19,53.98,10.79,14.65,28.29,21.98,52.5,21.98s39.61-8.24,49.88-24.73Z"/>
  </g>
</svg>