<?xml version="1.0" encoding="UTF-8"?>
<svg id="Ebene_1" xmlns="http://www.w3.org/2000/svg" xmlns:sketch="http://www.bohemiancoding.com/sketch/ns" version="1.1" viewBox="0 0 800 800">
  <!-- Generator: Adobe Illustrator 29.8.2, SVG Export Plug-In . SVG Version: 2.1.1 Build 3)  -->
  <defs>
    <style>
      .st0 {
        fill: #cc1619;
        fill-rule: evenodd;
      }

      .st1 {
        fill: #fff;
      }
    </style>
  </defs>
  <path class="st0" d="M400,0C179.07,0,0,179,0,400s179.07,400,400,400,400-179,400-400S620.93,0,400,0Z"/>
  <path class="st1" d="M617.53,261.33c-12.27-11.94-31.9-11.67-43.84.59l-221.81,227.89-120.39-94.06c-13.49-10.54-32.97-8.15-43.51,5.34-10.54,13.49-8.15,32.97,5.34,43.51l142.06,110.99c.05.04.1.08.15.12l.09.07s.04.02.05.04c1.36,1.06,2.78,1.99,4.26,2.79.07.04.14.08.21.11.69.37,1.4.71,2.11,1.02.11.05.21.09.32.14.7.3,1.42.58,2.14.82.08.03.17.05.25.08.66.22,1.32.41,1.99.58.13.03.26.07.39.1.68.17,1.37.3,2.06.42.18.03.37.06.55.09.68.11,1.37.19,2.06.25.16.01.32.02.48.03.7.05,1.41.08,2.12.09.03,0,.06,0,.08,0,.05,0,.1,0,.15,0,.5,0,.99-.02,1.49-.04.16,0,.32-.02.48-.03.39-.03.79-.06,1.18-.1.17-.02.34-.04.5-.06.39-.05.77-.1,1.15-.16.16-.03.32-.05.48-.08.39-.07.79-.15,1.18-.23.15-.03.29-.06.43-.1.41-.1.83-.2,1.24-.31.12-.03.24-.06.36-.1.45-.13.9-.27,1.35-.43.08-.03.15-.05.23-.07,1.07-.37,2.12-.8,3.15-1.29.04-.02.08-.04.12-.06.45-.22.89-.44,1.33-.68.17-.09.34-.19.51-.29.3-.17.6-.34.9-.53.22-.13.43-.27.64-.41.24-.16.48-.31.72-.48.24-.17.48-.33.71-.51.2-.15.41-.3.61-.46.25-.19.5-.39.74-.59.18-.15.36-.3.54-.45.25-.22.5-.43.74-.66.18-.16.35-.33.52-.5.23-.22.47-.44.69-.67.03-.03.05-.05.08-.08l241.2-247.81c11.94-12.27,11.68-31.9-.59-43.84Z"/>
</svg>