<?xml version="1.0" encoding="UTF-8"?>
<svg id="Ebene_1" xmlns="http://www.w3.org/2000/svg" version="1.1" viewBox="0 0 30 30">
  <!-- Generator: Adobe Illustrator 29.8.2, SVG Export Plug-In . SVG Version: 2.1.1 Build 3)  -->
  <path d="M12.39,0c-.72,0-1.31.57-1.32,1.29v.02H3.26c-.72,0-1.31.57-1.32,1.29s.57,1.31,1.29,1.32h23.52c.72,0,1.31-.57,1.32-1.29s-.57-1.31-1.29-1.32h-7.85C18.93.58,18.35,0,17.63,0h-.02s-5.22,0-5.22,0ZM3.26,6.52v20.87c0,1.44,1.17,2.61,2.61,2.61h18.26c1.44,0,2.61-1.17,2.61-2.61V6.52H3.26Z"/>
</svg>